<?xml version="1.0" encoding="iso-8859-1"?>
<!-- Generator: Adobe Illustrator 17.1.0, SVG Export Plug-In . SVG Version: 6.00 Build 0)  -->
<!DOCTYPE svg PUBLIC "-//W3C//DTD SVG 1.1//EN" "http://www.w3.org/Graphics/SVG/1.1/DTD/svg11.dtd">
<svg version="1.1" id="Capa_1" xmlns="http://www.w3.org/2000/svg" xmlns:xlink="http://www.w3.org/1999/xlink" x="0px" y="0px"
	 viewBox="0 0 466 466" style="enable-background:new 0 0 466 466;" xml:space="preserve">
<path d="M263.59,347.349c34.743-33.373,53.882-51.755,53.882-89.82V84.472C317.472,37.894,279.578,0,233,0
	c-46.574,0-84.465,37.888-84.471,84.461c0,0.005,0,0.011,0,0.016v55.656c0,0.003,0,0.007,0,0.01v117.385
	c0,38.065,19.139,56.448,53.882,89.82c6.769,6.502,14.372,13.807,22.59,21.976v13.387c-20.484-20.415-41.119-40.864-41.372-41.115
	c-3.139-3.109-8.203-3.086-11.313,0.052s-3.087,8.204,0.052,11.313c0.3,0.297,29.269,29.005,52.634,52.353v13.396
	c-20.484-20.415-41.119-40.864-41.372-41.115c-3.139-3.109-8.203-3.087-11.313,0.052c-3.11,3.138-3.087,8.204,0.052,11.313
	c0.3,0.297,29.269,29.005,52.634,52.353V458c0,4.418,3.582,8,8,8s8-3.582,8-8v-16.685c23.363-23.346,52.331-52.053,52.631-52.35
	c3.139-3.11,3.162-8.175,0.052-11.313c-3.109-3.139-8.175-3.161-11.313-0.052c-0.253,0.25-20.886,20.698-41.369,41.112v-13.397
	c23.363-23.346,52.331-52.053,52.631-52.35c3.139-3.11,3.162-8.175,0.052-11.313c-3.109-3.139-8.175-3.161-11.313-0.052
	c-0.253,0.25-20.886,20.698-41.369,41.112v-13.387C249.218,361.156,256.82,353.85,263.59,347.349z M301.472,84.472v173.057
	c0,31.248-15.345,45.987-48.966,78.281c-3.61,3.468-7.455,7.162-11.506,11.094V216.614c0-0.003,0-0.007,0-0.01v-55.656
	c0-0.003,0-0.007,0-0.01V16.483C274.998,20.459,301.472,49.424,301.472,84.472z M225,16.483v125.146l-14.579-14.579
	c-3.125-3.124-8.189-3.124-11.314,0c-3.124,3.124-3.124,8.189,0,11.313L225,164.257v33.038l-60.472-60.471v-33.039l14.581,14.581
	c1.563,1.563,3.609,2.343,5.657,2.343s4.095-0.781,5.657-2.343c3.124-3.124,3.124-8.189,0-11.313L164.61,81.24
	C166.179,47.657,192.053,20.336,225,16.483z M213.494,335.809c-33.621-32.294-48.966-47.033-48.966-78.281v-98.077L225,219.923
	v126.98C220.949,342.971,217.104,339.277,213.494,335.809z"/>
<g>
</g>
<g>
</g>
<g>
</g>
<g>
</g>
<g>
</g>
<g>
</g>
<g>
</g>
<g>
</g>
<g>
</g>
<g>
</g>
<g>
</g>
<g>
</g>
<g>
</g>
<g>
</g>
<g>
</g>
</svg>
